# xmcd
#
# Track frame offsets:
#	150
#	17595
#	37355
#	56516
#	77511
#	92091
#	113141
#	132297
#	149695
#	174350
#	194239
#	222182
#	241514
#	263370
#	283948
#	302522
#	324545
#	340111
#
# Disc length: 4756 seconds
#
# Revision: 0
# Processed by: cddbd v1.5.2PL0 Copyright (c) Steve Scherf et al.
# Submitted via: audiograbber 1.81.03
#
DISCID=02129212
DTITLE=DIAFOROI - HITS
DYEAR=1900
DGENRE=Blues
TTITLE0=B SPRINGSTEEN - FURTHER ON
TTITLE1=B SPRINGSTEEN - NOTHING MAN
TTITLE2=J COCKER - LET THE HEADING BEGIN
TTITLE3=J COCKER - NOUBLIEZ JAMAIS
TTITLE4=L KRAVITZ - BATTLEFIELD OF LOVE
TTITLE5=L KRAVITZ - BELEIVE IN ME
TTITLE6=L KRAVITZ - STILLNESS OF HEART
TTITLE7=L KRAVITZ - YESTERDAY IS GONE
TTITLE8=L KRAVITZ - YOU WHERE IN MY HEART
TTITLE9=SADE - HANG ON TO YOUR LOVE
TTITLE10=SADE - IS IT A CRIME
TTITLE11=S CROW - ANYTHING BUT DOWN
TTITLE12=S CROW - HOME
TTITLE13=S CROW - IF IT MAKES YOU HAPPY
TTITLE14=S CROW - MY FAVORITE MISTAKE 
TTITLE15=S CROW - TOMORROW NEVER DIES
TTITLE16=A JOHNSON - GLORIOUS
TTITLE17=HOFF and HERB - FEELING GOOD
EXTD=
EXTT0=
EXTT1=
EXTT2=
EXTT3=
EXTT4=
EXTT5=
EXTT6=
EXTT7=
EXTT8=
EXTT9=
EXTT10=
EXTT11=
EXTT12=
EXTT13=
EXTT14=
EXTT15=
EXTT16=
EXTT17=
PLAYORDER=
